<svg width="202" height="213" viewBox="0 0 202 213" fill="none" xmlns="http://www.w3.org/2000/svg">
<path fill-rule="evenodd" clip-rule="evenodd" d="M156.958 33.8904V22.7325C156.958 16.814 154.605 11.1379 150.417 6.95283C146.229 2.76781 140.548 0.416687 134.625 0.416687H67.625C61.7018 0.416687 56.0213 2.76781 51.8329 6.95283C47.6446 11.1379 45.2917 16.814 45.2917 22.7325V33.8904H11.7917C8.83008 33.8904 5.9898 35.0659 3.89564 37.1584C1.80148 39.251 0.625 42.089 0.625 45.0483C0.625 48.0075 1.80148 50.8456 3.89564 52.9381C5.9898 55.0306 8.83008 56.2062 11.7917 56.2062H22.9583V178.943C22.9583 187.821 26.4878 196.335 32.7703 202.612C39.0527 208.89 47.5736 212.417 56.4583 212.417H145.792C154.676 212.417 163.197 208.89 169.48 202.612C175.762 196.335 179.292 187.821 179.292 178.943V56.2062H190.458C193.42 56.2062 196.26 55.0306 198.354 52.9381C200.449 50.8456 201.625 48.0075 201.625 45.0483C201.625 42.089 200.449 39.251 198.354 37.1584C196.26 35.0659 193.42 33.8904 190.458 33.8904H156.958ZM134.625 22.7325H67.625V33.8904H134.625V22.7325ZM156.958 56.2062H45.2917V178.943C45.2917 181.902 46.4682 184.74 48.5623 186.833C50.6565 188.925 53.4968 190.101 56.4583 190.101H145.792C148.753 190.101 151.594 188.925 153.688 186.833C155.782 184.74 156.958 181.902 156.958 178.943V56.2062Z" fill="#FF7979"/>
<path d="M67.625 78.5219H89.9583V167.785H67.625V78.5219ZM112.292 78.5219H134.625V167.785H112.292V78.5219Z" fill="#FF7979"/>
</svg>
