<svg width="300" height="300" viewBox="0 0 300 300" fill="none" xmlns="http://www.w3.org/2000/svg">
<path d="M150 275C81.125 275 25 218.875 25 150C25 81.125 81.125 25 150 25C218.875 25 275 75.5 275 137.5C275 178.875 241.375 212.5 200 212.5H177.875C174.375 212.5 171.625 215.25 171.625 218.75C171.625 220.25 172.25 221.625 173.25 222.875C178.375 228.75 181.25 236.125 181.25 243.75C181.25 252.038 177.958 259.987 172.097 265.847C166.237 271.708 158.288 275 150 275ZM150 50C94.875 50 50 94.875 50 150C50 205.125 94.875 250 150 250C153.5 250 156.25 247.25 156.25 243.75C156.211 242.129 155.59 240.576 154.5 239.375C149.375 233.625 146.625 226.25 146.625 218.75C146.625 210.462 149.917 202.513 155.778 196.653C161.638 190.792 169.587 187.5 177.875 187.5H200C227.625 187.5 250 165.125 250 137.5C250 89.25 205.125 50 150 50Z" fill="black"/>
<path d="M81.25 162.5C91.6053 162.5 100 154.105 100 143.75C100 133.395 91.6053 125 81.25 125C70.8947 125 62.5 133.395 62.5 143.75C62.5 154.105 70.8947 162.5 81.25 162.5Z" fill="black"/>
<path d="M118.75 112.5C129.105 112.5 137.5 104.105 137.5 93.75C137.5 83.3947 129.105 75 118.75 75C108.395 75 100 83.3947 100 93.75C100 104.105 108.395 112.5 118.75 112.5Z" fill="black"/>
<path d="M181.25 112.5C191.605 112.5 200 104.105 200 93.75C200 83.3947 191.605 75 181.25 75C170.895 75 162.5 83.3947 162.5 93.75C162.5 104.105 170.895 112.5 181.25 112.5Z" fill="black"/>
<path d="M218.75 162.5C229.105 162.5 237.5 154.105 237.5 143.75C237.5 133.395 229.105 125 218.75 125C208.395 125 200 133.395 200 143.75C200 154.105 208.395 162.5 218.75 162.5Z" fill="black"/>
</svg>
